<svg width="30" height="30" viewBox="0 0 30 30" fill="none" xmlns="http://www.w3.org/2000/svg">
<g id="Facebook logo white" clip-path="url(#clip0_13224_11101)">
<path id="Vector" d="M14.5462 4C8.19578 4 3 9.18423 3 15.5693C3 21.3424 7.2259 26.134 12.745 27V18.9177H9.81224V15.5693H12.745V13.0176C12.745 10.1195 14.4654 8.5261 17.1094 8.5261C18.368 8.5261 19.6842 8.74548 19.6842 8.74548V11.5974H18.2294C16.7977 11.5974 16.3474 12.4864 16.3474 13.3986V15.5693H19.5572L19.0376 18.9177H16.3474V27C19.0681 26.5702 21.5457 25.1821 23.3327 23.0858C25.1197 20.9898 26.0986 18.3237 26.0923 15.5693C26.0923 9.18423 20.8966 4 14.5462 4Z" fill="white"/>
</g>
<defs>
<clipPath id="clip0_13224_11101">
<rect width="30" height="30" fill="white"/>
</clipPath>
</defs>
</svg>
