<svg width="30" height="30" viewBox="0 0 30 30" fill="none" xmlns="http://www.w3.org/2000/svg">
<g id="Instagram Logo White">
<path id="Vector" d="M19.609 4H10.391C6.387 4 4 6.387 4 10.391V19.598C4 23.613 6.387 26 10.391 26H19.598C23.602 26 25.989 23.613 25.989 19.609V10.391C26 6.387 23.613 4 19.609 4ZM15 19.268C12.646 19.268 10.732 17.354 10.732 15C10.732 12.646 12.646 10.732 15 10.732C17.354 10.732 19.268 12.646 19.268 15C19.268 17.354 17.354 19.268 15 19.268ZM21.512 9.368C21.457 9.5 21.38 9.621 21.281 9.731C21.171 9.83 21.05 9.907 20.918 9.962C20.786 10.017 20.643 10.05 20.5 10.05C20.203 10.05 19.928 9.94 19.719 9.731C19.62 9.621 19.543 9.5 19.488 9.368C19.433 9.236 19.4 9.093 19.4 8.95C19.4 8.807 19.433 8.664 19.488 8.532C19.543 8.389 19.62 8.279 19.719 8.169C19.972 7.916 20.357 7.795 20.709 7.872C20.786 7.883 20.852 7.905 20.918 7.938C20.984 7.96 21.05 7.993 21.116 8.037C21.171 8.07 21.226 8.125 21.281 8.169C21.38 8.279 21.457 8.389 21.512 8.532C21.567 8.664 21.6 8.807 21.6 8.95C21.6 9.093 21.567 9.236 21.512 9.368Z" fill="white"/>
</g>
</svg>
