<svg width="30" height="30" viewBox="0 0 30 30" fill="none" xmlns="http://www.w3.org/2000/svg">
<g id="Linkedin Logo white">
<path id="Vector" d="M24.2381 4.00197H5.88358C5.647 3.99089 5.41055 4.02657 5.18778 4.10699C4.96501 4.1874 4.76029 4.31096 4.58533 4.47058C4.41037 4.63022 4.26861 4.8228 4.16817 5.03728C4.06774 5.25177 4.01059 5.48396 4 5.72057V24.1164C4.01386 24.6115 4.21676 25.0827 4.56704 25.4329C4.91732 25.7832 5.3884 25.9861 5.88358 26H24.2381C24.7195 25.9786 25.1733 25.7693 25.5023 25.4172C25.8314 25.0651 26.0093 24.5982 25.998 24.1164V5.72057C26.002 5.49027 25.9588 5.26162 25.8712 5.0486C25.7836 4.83559 25.6534 4.64271 25.4886 4.48178C25.3239 4.32086 25.128 4.19531 24.9129 4.1128C24.6979 4.0303 24.4683 3.99258 24.2381 4.00197ZM10.8744 22.3428H7.67091V12.54H10.8744V22.3428ZM9.34826 11.0551C9.12472 11.0629 8.90198 11.0243 8.69404 10.9419C8.48609 10.8595 8.29743 10.735 8.13993 10.5762C7.98241 10.4174 7.85942 10.2277 7.77872 10.0191C7.698 9.8105 7.6613 9.58745 7.67091 9.36398C7.66103 9.13809 7.69847 8.91264 7.78084 8.70208C7.8632 8.4915 7.98868 8.30048 8.14919 8.14125C8.30972 7.98201 8.50175 7.8581 8.71297 7.77745C8.92421 7.69678 9.14996 7.66117 9.37576 7.67289C9.5993 7.66511 9.82204 7.70362 10.03 7.78603C10.2379 7.86844 10.4266 7.99296 10.5841 8.15177C10.7416 8.31058 10.8646 8.50025 10.9453 8.70885C11.026 8.91746 11.0627 9.14051 11.0531 9.36398C11.063 9.58987 11.0256 9.81533 10.9432 10.0259C10.8608 10.2365 10.7353 10.4275 10.5748 10.5867C10.4143 10.746 10.2223 10.8699 10.011 10.9505C9.79981 11.0312 9.57406 11.0668 9.34826 11.0551ZM22.3408 22.3428H19.1236V16.9808C19.1236 15.7022 18.6699 14.8223 17.5288 14.8223C17.1743 14.8253 16.8294 14.9379 16.5415 15.1447C16.2534 15.3515 16.0365 15.6422 15.9202 15.9772C15.8308 16.2282 15.7934 16.4948 15.8102 16.7608V22.3428H12.648V12.54H15.8102V13.9149C16.0913 13.3983 16.5097 12.9696 17.0192 12.676C17.5288 12.3824 18.1095 12.2354 18.6974 12.2512C20.7735 12.2512 22.3408 13.6261 22.3408 16.5546V22.3428Z" fill="white"/>
</g>
</svg>
