<svg width="55" height="31" viewBox="0 0 55 31" fill="none" xmlns="http://www.w3.org/2000/svg">
<g id="Pi Logo Icon">
<path id="Vector" d="M12.9499 10.3052C14.9092 10.3052 16.4975 8.71685 16.4975 6.75756C16.4975 4.79828 14.9092 3.20996 12.9499 3.20996C10.9907 3.20996 9.40234 4.79828 9.40234 6.75756C9.40234 8.71685 10.9907 10.3052 12.9499 10.3052Z" stroke="#1D1B19" stroke-width="1.01" stroke-miterlimit="10"/>
<path id="Vector_2" d="M13.6426 3.21102C13.7814 2.90779 13.9844 2.63827 14.2374 2.42101C14.4904 2.20376 14.7875 2.04394 15.1083 1.95256C15.429 1.86118 15.7657 1.84042 16.0953 1.8917C16.4248 1.94298 16.7393 2.06509 17.0171 2.24961C19.4014 3.48021 18.3343 6.79708 18.3343 6.79708C18.3343 6.79708 17.5844 8.6526 18.5746 8.7199C19.5649 8.78719 21.3146 7.24894 21.3146 7.24894" stroke="#1D1B19" stroke-width="1.01" stroke-miterlimit="10"/>
<path id="Vector_3" d="M12.2482 3.21102C12.1094 2.90779 11.9064 2.63827 11.6534 2.42101C11.4004 2.20376 11.1033 2.04394 10.7825 1.95256C10.4618 1.86118 10.1251 1.84042 9.79552 1.8917C9.46598 1.94298 9.15148 2.06509 8.87367 2.24961C6.48938 3.48021 7.55654 6.79708 7.55654 6.79708C7.55654 6.79708 8.30644 8.6526 7.31619 8.7199C6.32594 8.78719 4.57617 7.24894 4.57617 7.24894" stroke="#1D1B19" stroke-width="1.01" stroke-miterlimit="10"/>
<path id="Vector_4" d="M12.9886 10.9521L6.13379 23.1236H19.8435L12.9886 10.9521Z" stroke="#1D1B19" stroke-width="1.01" stroke-miterlimit="10"/>
<path id="Vector_5" d="M1.91309 9.60254L10.6138 15.1595" stroke="#1D1B19" stroke-width="1.01" stroke-miterlimit="10"/>
<path id="Vector_6" d="M23.583 9.60254L32.2838 15.1595" stroke="#1D1B19" stroke-width="1.01" stroke-miterlimit="10"/>
<path id="Vector_7" d="M53.8677 9.60254L45.167 15.1595" stroke="#1D1B19" stroke-width="1.01" stroke-miterlimit="10"/>
<path id="Vector_8" d="M24.0544 9.60254L15.3633 15.1595" stroke="#1D1B19" stroke-width="1.01" stroke-miterlimit="10"/>
<path id="Vector_9" d="M9.8642 23.1182L2.78822 29.9538L1 28.3194" stroke="#1D1B19" stroke-width="1.01" stroke-miterlimit="10"/>
<path id="Vector_10" d="M16.1035 23.1182L23.1795 29.9538L24.9677 28.3194" stroke="#1D1B19" stroke-width="1.01" stroke-miterlimit="10"/>
<path id="Vector_11" d="M35.6015 23.1182L28.5255 29.9538L26.7373 28.3194" stroke="#1D1B19" stroke-width="1.01" stroke-miterlimit="10"/>
<path id="Vector_12" d="M41.8408 23.1182L48.9168 29.9538L50.705 28.3194" stroke="#1D1B19" stroke-width="1.01" stroke-miterlimit="10"/>
<path id="Vector_13" d="M38.7258 10.6885L32.4189 15.3129L34.8321 22.8022H42.6195L45.023 15.3129L38.7258 10.6885Z" stroke="#1D1B19" stroke-width="1.01" stroke-miterlimit="10"/>
<path id="Vector_14" d="M38.7253 10.3052C40.6846 10.3052 42.2729 8.71685 42.2729 6.75756C42.2729 4.79828 40.6846 3.20996 38.7253 3.20996C36.766 3.20996 35.1777 4.79828 35.1777 6.75756C35.1777 8.71685 36.766 10.3052 38.7253 10.3052Z" stroke="#1D1B19" stroke-width="1.01" stroke-miterlimit="10"/>
<path id="Vector_15" d="M38.7256 0V3.22072" stroke="#1D1B19" stroke-width="1.01" stroke-miterlimit="10"/>
<path id="Vector_16" d="M42.6384 1.05469L40.3887 3.35246" stroke="#1D1B19" stroke-width="1.01" stroke-miterlimit="10"/>
<path id="Vector_17" d="M34.8037 1.05469L37.0534 3.35246" stroke="#1D1B19" stroke-width="1.01" stroke-miterlimit="10"/>
<path id="Vector_18" d="M12.9403 18.7096C12.1991 18.2496 11.6363 17.5512 11.3444 16.7291C11.307 16.5535 11.3308 16.3703 11.4117 16.21C11.479 16.0815 11.5797 15.9735 11.7032 15.8974C11.8267 15.8212 11.9685 15.7798 12.1135 15.7773C12.4692 15.7773 12.7673 16.1715 12.8923 16.4696C12.8923 16.4696 12.8923 16.4696 12.8923 16.5272C12.9185 16.4635 12.9507 16.4023 12.9884 16.3446C13.0372 16.2554 13.0952 16.1716 13.1615 16.0946C13.2206 16.0037 13.3 15.9278 13.3934 15.8727C13.4868 15.8177 13.5917 15.785 13.6998 15.7773C13.9485 15.8132 14.1732 15.9449 14.3259 16.1444C14.4786 16.3438 14.5472 16.5951 14.517 16.8445C14.3202 17.359 13.988 17.8108 13.5556 18.152C13.373 18.3443 13.1615 18.5366 12.9403 18.7096Z" fill="#D85A49"/>
<path id="Vector_19" d="M38.7163 18.7084C37.975 18.2483 37.4123 17.5499 37.1203 16.7279C37.098 16.6129 37.1009 16.4944 37.1289 16.3807C37.1569 16.2669 37.2093 16.1607 37.2824 16.0692C37.3556 15.9777 37.4478 15.9033 37.5526 15.851C37.6574 15.7987 37.7724 15.7699 37.8894 15.7665C38.2548 15.7665 38.5432 16.1606 38.6682 16.4587V16.5163C38.6871 16.4512 38.7163 16.3896 38.7547 16.3337C38.812 16.2398 38.8797 16.1527 38.9566 16.0741C39.0158 15.9832 39.0951 15.9073 39.1885 15.8522C39.282 15.7972 39.3869 15.7645 39.495 15.7568C39.7436 15.7927 39.9684 15.9244 40.1211 16.1239C40.2738 16.3233 40.3424 16.5746 40.3122 16.824C40.1154 17.3385 39.7832 17.7902 39.3508 18.1315C39.1585 18.343 38.9566 18.5353 38.7163 18.7084Z" fill="#D85A49"/>
</g>
</svg>
