<svg width="132" height="24" viewBox="0 0 132 24" fill="none" xmlns="http://www.w3.org/2000/svg">
<g id="Group 657">
<g id="Group 573">
<rect id="Rectangle 8356" width="24" height="24" fill="#00B67A"/>
<g id="Group 572">
<g id="Group 571">
<path id="Vector" d="M22.2004 9.50872H14.6395L12.304 2.40039L9.96132 9.50872L2.40039 9.50163L8.52364 13.8992L6.18073 21.0004L12.304 16.61L18.4198 21.0004L16.0843 13.8992L22.2004 9.50872Z" fill="white"/>
</g>
<path id="Vector_2" d="M16.8006 15.5801L16.2006 13.8008L12.6006 16.8008L16.8006 15.5801Z" fill="#00B67A"/>
</g>
</g>
<g id="Group 574">
<rect id="Rectangle 8356_2" x="27" width="24" height="24" fill="#00B67A"/>
<g id="Group 572_2">
<g id="Group 571_2">
<path id="Vector_3" d="M49.2004 9.50872H41.6395L39.304 2.40039L36.9613 9.50872L29.4004 9.50163L35.5236 13.8992L33.1807 21.0004L39.304 16.61L45.4198 21.0004L43.0843 13.8992L49.2004 9.50872Z" fill="white"/>
</g>
<path id="Vector_4" d="M43.8006 15.5801L43.2006 13.8008L39.6006 16.8008L43.8006 15.5801Z" fill="#00B67A"/>
</g>
</g>
<g id="Group 575">
<rect id="Rectangle 8356_3" x="54" width="24" height="24" fill="#00B67A"/>
<g id="Group 572_3">
<g id="Group 571_3">
<path id="Vector_5" d="M76.2004 9.50872H68.6395L66.304 2.40039L63.9613 9.50872L56.4004 9.50163L62.5236 13.8992L60.1807 21.0004L66.304 16.61L72.4198 21.0004L70.0843 13.8992L76.2004 9.50872Z" fill="white"/>
</g>
<path id="Vector_6" d="M70.8006 15.5801L70.2006 13.8008L66.6006 16.8008L70.8006 15.5801Z" fill="#00B67A"/>
</g>
</g>
<g id="Group 576">
<rect id="Rectangle 8356_4" x="81" width="24" height="24" fill="#00B67A"/>
<g id="Group 572_4">
<g id="Group 571_4">
<path id="Vector_7" d="M103.2 9.50872H95.6395L93.304 2.40039L90.9613 9.50872L83.4004 9.50163L89.5236 13.8992L87.1807 21.0004L93.304 16.61L99.4198 21.0004L97.0843 13.8992L103.2 9.50872Z" fill="white"/>
</g>
<path id="Vector_8" d="M97.8006 15.5801L97.2006 13.8008L93.6006 16.8008L97.8006 15.5801Z" fill="#00B67A"/>
</g>
</g>
<g id="Group 577">
<rect id="Rectangle 8356_5" x="108" width="24" height="24" fill="#E4F2EE"/>
<rect id="Rectangle 8357" x="108" width="12" height="24" fill="#00B67A"/>
<g id="Group 572_5">
<g id="Group 571_5">
<path id="Vector_9" d="M130.2 9.50872H122.639L120.304 2.40039L117.961 9.50872L110.4 9.50163L116.524 13.8992L114.181 21.0004L120.304 16.61L126.42 21.0004L124.084 13.8992L130.2 9.50872Z" fill="white"/>
</g>
<path id="Vector_10" d="M124.801 15.5801L124.201 13.8008L120.601 16.8008L124.801 15.5801Z" fill="#F9F9F9"/>
</g>
</g>
</g>
</svg>
