<svg width="50" height="50" viewBox="0 0 50 50" fill="none" xmlns="http://www.w3.org/2000/svg">
<g id="Small Size Class">
<path id="Vector" d="M31.2478 40.0715C31.249 39.9975 31.2497 39.9234 31.2497 39.8491M31.2497 39.8491C32.985 40.3542 34.8201 40.625 36.7184 40.625C39.7991 40.625 42.7133 39.9117 45.3047 38.6413C45.3096 38.5219 45.3121 38.4019 45.3121 38.2812C45.3121 33.5351 41.4646 29.6875 36.7184 29.6875C33.7641 29.6875 31.1581 31.1782 29.6113 33.4484C30.6556 35.3454 31.2497 37.5252 31.2497 39.8437V39.8491ZM42.1872 17.9687C42.1872 20.9891 39.7388 23.4375 36.7185 23.4375C33.6982 23.4375 31.2497 20.9891 31.2497 17.9687C31.2497 14.9484 33.6982 12.5 36.7185 12.5C39.7388 12.5 42.1872 14.9484 42.1872 17.9687Z" stroke="url(#paint0_linear_13012_314)" stroke-width="2" stroke-linecap="round" stroke-linejoin="round"/>
<g id="Vector_2">
<path d="M25 13.2812C25 17.1645 21.852 20.3125 17.9687 20.3125C14.0855 20.3125 10.9375 17.1645 10.9375 13.2812C10.9375 9.398 14.0855 6.25 17.9687 6.25C21.852 6.25 25 9.398 25 13.2812Z" stroke="#1D1B19" stroke-width="2" stroke-linecap="round" stroke-linejoin="round"/>
<path d="M4.68942 40.0715C4.68814 39.9957 4.6875 39.9198 4.6875 39.8437C4.6875 32.5087 10.6337 26.5625 17.9687 26.5625C22.9852 26.5625 27.3521 29.3437 29.6116 33.4484C30.6559 35.3454 31.25 37.5252 31.25 39.8437V39.8491C31.25 39.9234 31.2493 39.9975 31.2481 40.0715C27.3695 42.4068 22.826 43.75 17.9687 43.75C13.1115 43.75 8.568 42.4068 4.68942 40.0715Z" stroke="#1D1B19" stroke-width="2" stroke-linecap="round" stroke-linejoin="round"/>
</g>
</g>
<defs>
<linearGradient id="paint0_linear_13012_314" x1="37.4617" y1="12.5" x2="37.4617" y2="40.625" gradientUnits="userSpaceOnUse">
<stop stop-color="#FF7542"/>
<stop offset="0.505208" stop-color="#FE4501"/>
</linearGradient>
</defs>
</svg>
