<svg width="50" height="50" viewBox="0 0 50 50" fill="none" xmlns="http://www.w3.org/2000/svg">
<g id="Success Rate">
<path id="Vector" d="M34.3758 39.0625H15.6258M34.3758 39.0625C37.8276 39.0625 40.6258 41.8607 40.6258 45.3125H9.37584C9.37584 41.8607 12.1741 39.0625 15.6258 39.0625M34.3758 39.0625V32.0312C34.3758 30.7368 33.3265 29.6875 32.0321 29.6875H30.2162M15.6258 39.0625V32.0312C15.6258 30.7368 16.6752 29.6875 17.9696 29.6875H19.7855M30.2162 29.6875H19.7855M30.2162 29.6875C29.0759 27.7163 28.3539 25.4729 28.1715 23.0786M19.7855 29.6875C20.9258 27.7163 21.6478 25.4729 21.8302 23.0786M10.9383 8.82574C8.89189 9.12333 6.86617 9.4849 4.86328 9.90835C5.80143 15.4656 10.4069 19.7767 16.1043 20.2661M10.9383 8.82574V9.375C10.9383 13.7662 12.9511 17.6873 16.1043 20.2661M10.9383 8.82574V5.66853C15.533 5.02189 20.2279 4.6875 25.0008 4.6875C29.7738 4.6875 34.4687 5.02189 39.0633 5.66853V8.82574M16.1043 20.2661C17.7451 21.608 19.6947 22.5865 21.8302 23.0786M39.0633 8.82574V9.375C39.0633 13.7662 37.0506 17.6873 33.8974 20.2661M39.0633 8.82574C41.1098 9.12334 43.1355 9.48491 45.1384 9.90836C44.2003 15.4656 39.5947 19.7767 33.8974 20.2661M33.8974 20.2661C32.2566 21.608 30.307 22.5865 28.1715 23.0786M28.1715 23.0786C27.1525 23.3134 26.0912 23.4375 25.0008 23.4375C23.9105 23.4375 22.8492 23.3134 21.8302 23.0786" stroke="#1D1B19" stroke-width="2" stroke-linecap="round" stroke-linejoin="round"/>
<path id="Star 41" d="M25.0003 8.33301L26.7147 11.8067L30.5482 12.3637L27.7742 15.0676L28.4291 18.8856L25.0003 17.083L21.5716 18.8856L22.2264 15.0676L19.4525 12.3637L23.286 11.8067L25.0003 8.33301Z" stroke="url(#paint0_linear_12969_13557)" stroke-width="2"/>
</g>
<defs>
<linearGradient id="paint0_linear_12969_13557" x1="25.0003" y1="8.33301" x2="25.0003" y2="19.9997" gradientUnits="userSpaceOnUse">
<stop stop-color="#FF7542"/>
<stop offset="0.505208" stop-color="#FE4501"/>
</linearGradient>
</defs>
</svg>
