<svg width="30" height="30" viewBox="0 0 30 30" fill="none" xmlns="http://www.w3.org/2000/svg">
<g id="Twitter Logo white">
<path id="Vector" d="M10.7392 25C7.88917 25 5.23486 24.1644 3 22.7271C4.32176 22.8877 5.66222 22.7858 6.94457 22.4275C8.22692 22.0691 9.42596 21.4613 10.473 20.6388C9.41916 20.6195 8.39779 20.2707 7.55223 19.6414C6.70668 19.0121 6.07937 18.1339 5.75834 17.1299C6.06706 17.1903 6.38361 17.2216 6.70687 17.2216C7.16771 17.2216 7.61513 17.159 8.04129 17.0471C6.89885 16.8158 5.87148 16.1966 5.13316 15.2946C4.39485 14.3926 3.99097 13.2632 3.98991 12.0976V12.0316C4.68986 12.4215 5.47313 12.6378 6.27399 12.6624C5.58197 12.2014 5.01475 11.5763 4.62287 10.8428C4.23098 10.1094 4.02661 9.29047 4.02795 8.45892C4.02795 7.53724 4.27962 6.66701 4.7125 5.92205C5.98013 7.48173 7.56169 8.75729 9.35443 9.6659C11.1472 10.5745 13.111 11.0958 15.1183 11.196C14.8668 10.1136 14.9792 8.97845 15.438 7.96635C15.8969 6.95425 16.6766 6.12164 17.6564 5.59745C18.6362 5.07326 19.7616 4.88673 20.8582 5.06674C21.9547 5.24674 22.9614 5.78325 23.7222 6.59318C24.8523 6.36949 25.9363 5.95573 26.928 5.36949C26.5507 6.53837 25.7627 7.53099 24.7099 8.16362C25.7104 8.04418 26.6875 7.77653 27.6092 7.36946C26.9295 8.38196 26.0768 9.26683 25.0902 9.9835C25.0991 10.1994 25.1059 10.4175 25.1059 10.6356C25.1047 17.3044 20.0254 25.0011 10.7392 25Z" fill="white"/>
</g>
</svg>
